<svg version="1.1" id="Layer_1" xmlns="http://www.w3.org/2000/svg" xmlns:xlink="http://www.w3.org/1999/xlink" x="0px" y="0px"
	 width="100%" viewBox="0 0 512 512" enable-background="new 0 0 512 512" xml:space="preserve">
<path fill="#666666" opacity="1.000000" stroke="none" 
	d="
M488.335907,259.013153 
	C489.396576,281.918152 486.965057,304.029449 481.034180,325.573364 
	C475.024414,347.403931 466.092316,368.094299 453.949860,387.363098 
	C438.983032,411.113892 420.336609,431.368439 398.251740,448.666656 
	C377.898285,464.608734 355.525238,476.727051 331.151337,485.054565 
	C314.286682,490.816498 296.905701,494.051331 279.050110,495.753448 
	C268.070343,496.800140 257.185089,496.081085 246.278931,496.521515 
	C237.323883,496.883209 228.235703,494.655212 219.246582,493.307892 
	C204.120850,491.040863 189.430649,487.016357 175.203232,481.427582 
	C158.816147,474.990448 143.217728,467.135895 128.467407,457.332825 
	C114.804649,448.252533 102.385246,437.789673 90.933182,426.267578 
	C76.834694,412.082764 65.028259,396.021790 55.025120,378.602234 
	C47.292786,365.137146 41.074001,350.989716 36.414516,336.324005 
	C31.477942,320.786133 27.647688,304.880890 26.503735,288.416565 
	C25.849281,278.997345 24.404678,269.632935 24.672155,260.149750 
	C25.102167,244.903992 27.057697,229.867996 30.141592,214.918198 
	C36.230553,185.400742 48.330963,158.441772 64.914604,133.520767 
	C76.742012,115.747147 90.988121,100.054359 107.562943,86.353882 
	C118.502754,77.311226 129.999741,69.208160 142.267792,62.296776 
	C161.277924,51.587154 181.580399,44.215584 202.960068,39.367058 
	C222.812454,34.864891 242.793152,32.479416 263.045837,32.811268 
	C273.086670,32.975796 283.099945,34.459282 293.096527,36.021484 
	C300.815247,37.227711 308.197662,39.720528 316.453552,40.701439 
	C322.667877,31.714521 330.662933,24.168629 341.078857,19.519440 
	C363.493286,9.514672 389.189911,12.575153 407.335480,29.316185 
	C412.619171,34.190895 417.508545,39.905319 419.462341,47.296001 
	C420.116608,49.770950 421.685303,50.548065 424.218140,50.706970 
	C447.438690,52.163811 464.556854,62.743843 472.095825,85.333466 
	C476.606415,98.848915 475.673065,112.828743 470.495697,126.308037 
	C468.075653,132.608505 464.494843,138.193192 459.632538,142.841736 
	C457.315216,145.057159 457.600586,146.851761 459.085327,149.347900 
	C469.601379,167.027298 476.729736,186.070175 481.688629,205.986008 
	C485.984772,223.240219 488.264130,240.734253 488.335907,259.013153 
M109.557487,407.813904 
	C110.854836,408.921783 111.506958,410.996948 113.686363,410.750397 
	C114.923370,409.410309 114.100861,408.196838 113.864754,406.911469 
	C110.838783,390.437805 108.754944,373.852325 108.695839,357.079926 
	C108.652008,344.640442 109.618248,332.291351 111.467163,319.944855 
	C113.485352,306.467957 116.328354,293.220367 121.282494,280.592316 
	C130.440674,257.248077 143.458038,236.314011 162.221848,219.330338 
	C178.286957,204.789352 195.900116,194.169479 218.836823,195.549942 
	C230.166763,196.231857 239.973694,199.956024 248.004944,207.649475 
	C262.136841,221.186920 268.395844,238.477875 269.181152,257.601288 
	C269.702759,270.303345 269.850525,283.028107 266.628723,295.699249 
	C263.994080,306.061188 260.731293,315.996338 256.177765,325.648529 
	C253.904266,330.467651 250.358704,334.792206 249.329147,340.521973 
	C251.206650,340.521973 252.817841,340.894012 254.174774,340.463898 
	C266.575256,336.533203 279.313416,336.987244 291.992432,337.757965 
	C302.714569,338.409698 312.615753,342.137665 320.258209,349.817657 
	C334.372955,364.001770 333.477448,379.817139 327.204285,397.995972 
	C320.834229,416.455566 307.357697,429.827393 291.923553,440.843903 
	C272.088593,455.001556 249.467392,461.317505 225.092804,461.342651 
	C216.578018,461.351410 208.039597,460.920685 199.228699,462.268921 
	C300.660675,495.249969 402.015503,437.678955 442.326202,352.767578 
	C463.376709,308.426392 468.208496,262.143860 457.519592,214.289413 
	C453.368652,195.705612 446.908417,177.973969 436.391968,160.827988 
	C434.867615,164.623535 433.805115,167.378601 432.661133,170.099411 
	C425.984192,185.979660 414.802216,197.399994 399.034668,204.442474 
	C385.353760,210.552963 371.219513,211.804718 356.354340,210.615692 
	C342.010468,209.468338 329.207062,205.175934 317.820190,196.614166 
	C308.158539,189.349579 301.633881,180.096817 300.582397,167.615173 
	C300.184601,162.892960 298.085846,160.015793 293.122314,158.127258 
	C283.263519,154.376144 275.816193,147.443298 270.537506,138.061981 
	C264.779205,127.828300 263.227600,116.969872 263.542847,105.440186 
	C263.885162,92.921410 267.628723,81.801941 274.703705,71.534393 
	C277.038452,68.146080 280.825928,65.935509 282.493744,61.816757 
	C281.755463,61.345097 281.245117,60.759087 280.673645,60.691689 
	C262.456909,58.543274 244.145111,58.173584 226.055603,60.964756 
	C210.596878,63.350010 195.379990,67.211342 180.752991,73.156898 
	C146.253525,87.180176 117.454582,108.727188 94.579628,138.067383 
	C79.552757,157.341385 67.984596,178.519440 60.756329,201.973328 
	C54.763130,221.419724 51.055420,241.188065 51.337311,261.639191 
	C51.522701,275.089264 52.532955,288.358826 55.002365,301.660004 
	C57.712448,316.257538 61.913837,330.292480 67.703163,343.826050 
	C77.772789,367.365570 91.688774,388.499634 109.557487,407.813904 
M134.409027,379.322662 
	C136.709198,388.825500 136.568558,398.937836 140.996445,408.245697 
	C144.603210,406.815857 146.926422,404.690155 149.297150,402.641541 
	C153.686172,398.848846 157.997162,394.911621 162.477829,391.288452 
	C181.266602,376.095551 198.996002,359.834106 214.895721,341.630951 
	C234.635544,319.031342 245.789307,293.107758 244.620529,262.660004 
	C244.182495,251.248535 241.606232,240.342041 234.746536,230.869202 
	C226.885468,220.013489 215.573517,217.168335 203.186874,222.445892 
	C187.159668,229.274551 174.849518,240.643463 164.304932,254.168030 
	C151.129807,271.066498 142.730743,290.195404 137.807602,310.959717 
	C135.511337,320.644714 134.011307,330.490051 133.576736,340.372192 
	C133.314545,346.334747 131.840927,352.214966 132.492264,358.236023 
	C133.220749,364.970184 133.752533,371.725586 134.409027,379.322662 
M342.108276,182.376007 
	C359.321411,188.653717 376.131561,188.162796 392.626160,179.735413 
	C400.484589,175.720413 406.094269,169.697189 410.146790,162.017868 
	C413.439178,155.778976 410.823517,150.239838 408.223450,144.646896 
	C407.130432,142.295685 407.978058,141.170349 410.618774,140.501434 
	C416.235504,139.078644 421.853027,137.507370 427.265289,135.456284 
	C445.805695,128.430038 452.949127,112.256622 448.600403,93.722855 
	C445.173065,79.115974 429.542450,72.985481 421.658813,74.709358 
	C415.863190,75.976654 410.024109,77.348740 404.757263,80.360626 
	C402.661591,81.559059 400.392761,81.798126 397.998993,80.649673 
	C396.616608,75.601936 398.415222,70.560265 397.760437,65.434464 
	C394.797546,42.239799 371.460449,35.246376 353.991669,41.679882 
	C339.369690,47.064945 335.531982,59.159481 334.402039,72.859314 
	C333.908783,78.840141 333.062683,79.539597 327.518097,77.096992 
	C317.494965,72.681427 307.367279,72.643555 299.075714,80.008896 
	C288.285431,89.593842 285.449493,102.478943 287.977234,116.418037 
	C288.855408,121.260681 290.482056,125.990074 294.182251,129.774628 
	C300.843079,136.587326 309.093140,138.722229 318.224548,138.662979 
	C324.628021,138.621429 325.187653,139.385223 323.287170,145.597900 
	C322.464020,148.288727 321.270660,150.844193 321.320892,153.792984 
	C321.560272,167.847565 329.268707,176.523499 342.108276,182.376007 
M233.348694,436.607727 
	C246.420120,435.510162 258.759979,431.396759 270.124908,425.343628 
	C286.595062,416.571411 300.251770,404.517761 305.771790,385.741852 
	C307.655548,379.334320 308.356659,372.381500 302.468811,367.259521 
	C298.668030,363.953156 293.855774,362.484100 288.924377,361.298828 
	C278.832245,358.873047 269.160278,361.785370 259.786285,364.206482 
	C240.206070,369.263641 222.468140,378.613220 206.042984,390.444305 
	C194.194443,398.978821 182.710892,407.971832 171.340088,417.126801 
	C166.368576,421.129517 161.254990,424.930359 156.501633,429.715820 
	C181.811111,436.157715 206.803299,439.966339 233.348694,436.607727 
z"/>
<path fill="#666666" opacity="1.000000" stroke="none" 
	d="
M341.350464,94.558426 
	C349.533844,83.604195 360.502686,79.623810 373.159943,81.857925 
	C385.155151,83.975166 394.843506,92.445732 397.075073,106.142906 
	C398.896118,117.320427 396.762268,127.822319 387.525574,136.061386 
	C376.921051,145.520569 362.027649,146.317993 350.486481,138.812256 
	C335.593140,129.126465 332.605927,110.671562 341.350464,94.558426 
z"/>
</svg>